<?xml version="1.0" encoding="UTF-8"?>
<svg id="Calque_1" data-name="Calque 1" xmlns="http://www.w3.org/2000/svg" viewBox="0 0 531.78 547.51">
  <defs>
    <style>
      .cls-1 {
        fill: #037cbc;
      }

      .cls-2 {
        fill: #f18712;
      }
    </style>
  </defs>
  <path class="cls-1" d="M139.78,0c4.43,3.45,8.28,7.64,12.52,11.34,16.71,14.58,35.71,28.59,54.65,40.47,12.96,8.13,26.4,15.62,40.2,22.24,0,.55-1.39.35-1.75.33-4.25-.22-9.56-1.26-13.82-2.01-30.22-5.26-59.97-17.01-87.47-30.2-6.97-3.34-13.78-7.16-20.78-10.37-.11-.15.44-2.33.58-2.7,2.54-6.83,5.66-13.56,9.23-19.89,1.85-3.29,3.47-6.66,6.34-9.22h.32Z"/>
  <path class="cls-1" d="M0,391.44l21.36-37.07.71.13,12.24,9.55c-.09,17.42,1.22,34.77,2.09,52.16.05.91.06,1.95-.16,2.83l-11.04-8c-.47-3.75.32-7.58-.6-11.27l-9.54-7.42-3.87,8-11.19-8.3v-.59ZM25.05,388.48l.15-18.99-6.12,14.09c.12,1.12,4.95,3.93,5.97,4.9Z"/>
  <path class="cls-2" d="M491.21,84.64c-13.82,22.2-28.2,44.24-42.3,66.23-3.76,5.87-6.75,12.31-11.75,17.23-22.44,9.75-45.82,17.61-68.64,26.55l-70.46,13.71c-4.84,2.03-12.35,10.01-14.75,14.63-1.89,3.64-2.71,11.06-3.48,15.45-2.87,16.43-4.15,32.98-3.55,50.06,1.84,51.97,24.35,103.56,51.69,146.79.53.83,2.64,2.03.87,3.48-.71.58-2.95,1.79-3.93,2.39-20.25,12.53-41.64,24.83-62.39,36.56-2.05,1.16-7.59,4.67-9.41,5.13-.66.16-1.28.34-1.97.2-64.65-36.76-128.78-74.91-190.45-116.5-7.88-5.31-17.43-11.19-24.76-16.96-1.3-1.02-2-1.79-2.2-3.48-.62-5.08-.02-11.12-.65-16.06-.08-.6-.61-.3-.68-.9-1.01-7.95-.62-18.28-.91-26.5s-1.88-16.58.89-24.28c9.55-26.52,24.56-49.72,44.38-69.93.9-.92,1.9-1.67,2.81-2.55-2.2-3.63-3.31-7.78-4.73-11.84-5.9-16.88-7.71-32.55-6.95-50.84,1.33-32.28,16.13-74.47,32-102.47,1.76-3.1.35-4.62,4.77-2.47,3.68,1.79,7.21,4.03,10.86,5.9,45.61,23.38,94.27,44.64,146.62,45.56l39.04-15.39,63.01,19.51c40.71-6.12,81.41-12.38,122.27-17.59,1.51-.88,6.21,3.16,6.65,4.1.54,1.16-1.23,3.23-1.88,4.27ZM134.71,106.51c14.69.34,29.28-1.49,43.87-2.84,1.81-.8.21-1.17-.78-1.43-5-1.28-11.25-1.79-16.49-2.82-9.8-1.93-19.58-4.23-29.06-7.32-2.21-.72-6.61-2.98-8.55-3.17-4.59-.46-2.92,5.19-2.51,7.87,3.91,25.53,14.29,51.63,28.42,72.96,2,3.02,4.22,9.14,9.09,6.76,1.78-.87,4.98-3.83,6.91-5.1,7.7-5.04,15.99-9.23,24.7-12.29l-.02-.64c-.5-.22-1.01-.29-1.56-.33-3.52-.25-9.66.3-13.31.65-5.7.54-11.34,1.89-16.61,4.08-2.03-3.17-4.5-6.31-6.42-9.54-6.72-11.35-12.21-25.08-15.75-37.64-.31-1.1-2.26-8.87-1.93-9.2ZM282.42,176.26c-1.82,2.34-3.42,4.87-5.36,7.13l.17,1.13,1.41.13c21.03-5.82,42.17-11.33,63.53-15.9.8-.49,1.22-5.71,1.28-6.92.22-4.17.11-9.7-.37-13.84-.23-1.98-.4-2.92-2.32-3.68-5.57-2.18-17.54-3.56-23.81-4.35-1.36-.17-5.87-.95-6.77-.52-4.72,6.66-9.42,13.32-14.31,19.81-4.33,5.75-9.05,11.38-13.45,17.01Z"/>
  <path class="cls-1" d="M520.35,107.34c-9.48,24.52-19.3,49.16-30.77,72.89-27.26,25.62-55.59,50.3-82.14,76.52-.89,5.56-1.92,11.1-2.83,16.66-2.24,13.78-4.79,29.2-1.29,43.35,4.35,17.61,15.2,35.07,28.63,47.52,1.76,1.63,4.16,2.93,5.56,4.88l-.41,1.34-30.25,19.56c-1.22.16-4.37-2.09-5.46-2.94-5.69-4.4-10.5-11.93-14.15-18.05-9.04-15.15-15.7-31.43-21.03-48.36-.08-.25-.54-.24-.59-.46-.44-1.84.52-1.9.61-2.21,1.82-6.51,2.51-15.61,3.84-22.54,2.81-14.71,5.89-29.7,9.01-44.66.63-3,.92-6.08,1.66-9.07.35-.53.84-1.12,1.33-1.52,23.97-19.53,47.46-39.82,71.12-60.01,2.71-2.31,8.57-6.23,10.61-8.67.77-.93,1.29-2.61,1.9-3.71,13.43-23.93,24.54-49.56,38.09-73.42.58-1.02,1.05-2.26,1.54-3.33.51-.17,1.04-.09,1.53.12,1.98.86,6.29,4.57,8.52,6.01,1.12.73,6.33,3.46,6.72,4.05.25.38.22.38.16.8-.15,1.21-1.41,3.95-1.91,5.24Z"/>
  <path class="cls-2" d="M297.64,476.3c-.12,10.87.16,21.76.01,32.63,0,.74-.33,1.43-.34,2.18-.04,2.56.35,18.11-.36,19.02-3.75,1.54-7.37,4.54-11.03,6.2-.42.19-.49.24-.8-.16l-6.49-28.36-1.32,33.19-11.98,6.51-8.82-47.85,11.67-6.35,2.85,30.57c-.04-1.23-.24-1.81.66-2.66l.6-23.9,9.6-5.65,1.18-.25c.07.87.1,2.1.35,2.91,1.72,5.78,2.48,12.09,4.11,17.97.07.26.55.22.6.45.12.47-.29,1.4.32,1.36l-2.48-30.97,11.66-6.84Z"/>
  <polygon class="cls-2" points="381.25 425.25 387.22 475.77 376.49 482.76 375.64 482.71 360.04 464.32 362.51 490.89 351.17 498.04 345.18 447.51 356.66 440.41 373.02 458.97 369.58 432.4 381.25 425.25"/>
  <path class="cls-2" d="M441.88,395.82c.64,1.54,1.07,2.83,1.14,4.68.18,4.61-1.9,8.29-4.13,12.14,11.86-3.69,11.43,12.45,8.39,19.53-4.28,9.98-20.36,18.91-29.65,24.7-.32.2-2.7,1.58-2.81,1.46l-6.93-50.53,20.89-13.88c3.15-1.7,6.62-3.71,10.23-2.04,1.79.83,2.17,2.27,2.86,3.94ZM430.9,405.79c-2.17-2.02-7.77,3.73-10,4.38-.14.22-.13,1.9-.04,2.26.06.23.56.19.62.43.21.86.35,5.09.65,5.45,3.12-2.18,9.09-4.76,9.5-8.98.09-.94,0-2.88-.71-3.54ZM424.96,440.06c.45.05.83,0,1.25-.17,1.65-.66,8.05-5.49,9.14-6.98,2.48-3.38,3.17-12.2-3.24-9.52-.88.37-8.05,4.88-8.27,5.32-.78,1.58,1.48,9.07,1.11,11.35Z"/>
  <path class="cls-1" d="M60.64,389.28c1.38,5.77,3.01,12.48,4.4,18.32.61,2.57,1.05,5.27,1.47,7.88.59-.12.51-.61.59-1.04.59-3.08.55-7.01,1.78-9.56l1.94-13.15.76-.14,9.86,6.88-7.18,46.98-10.86-7.44c-1-3.42-1.44-6.99-2.28-10.44-1.31-5.38-3.06-11.64-4.43-17.07-.42-1.67-.59-3.69-.92-5.41l-4.18,24.63-10.75-7.3,8.51-46.41,1.03.18,8.98,6.79c.75,1.99.8,4.29,1.28,6.31Z"/>
  <path class="cls-1" d="M197.84,479.76c.05.09.41.16.57.48,2.55,5.07,4.36,15.44-1.9,18.44-2.1,1-3.71.8-5.94.63,1.07,4.55,2.05,9.15,3.26,13.66.86,3.19,2.32,6.68,2.93,10.15.06.37.3,1.22-.37.96l-11.92-7.43c-.9-2.17-1.06-4.66-1.68-6.87-1.35-4.8-2.61-11.1-4.42-15.6-.22-.54-.08-1.24-.49-1.83s-2.06-1.2-2.67-1.8c-.56-.19-.38,3.37-.45,3.65-.25,1.09-.43,1.4-.59,3.02-.42,4.1-.87,8.21-1.19,12.32l-11.02-6.69-.59-.86,5.21-46.46,24.14,15.13c3.13,2.76,5.15,5.45,7.12,9.09ZM186.59,477.89c-1.36-1.22-5.73-3.83-7.5-4.85-.49-.28-1.27-.74-1.75-.94-.31-.13-.29-.42-.65.04.15,1.97-1.32,7.72-.59,9.21.21.42,7.09,4.66,7.99,5.1,6.75,3.32,5.92-5.5,2.5-8.57Z"/>
  <path class="cls-2" d="M487.8,377.55c4.89,14.75-.24,30.76-12.01,40.77l-19.16,12.92-8.17-50.67,17.81-12.05c11.48-6.02,17.72-2.44,21.52,9.03ZM475.13,383.21c-4.06-6.31-8.87-3.08-13.39.67l4.7,28.45c.46.05.82.02,1.25-.17,9.64-4.29,12.74-20.7,7.43-28.95Z"/>
  <path class="cls-1" d="M109.15,435.65c-.05-1.63-.37-3.58-.92-5.11-.07-.2-.46-.25-.55-.46-.83-1.99-1.45-4.14-3.34-5.52-2-1.46-4.68-2.44-6.69-.49-3.82,3.71-4.5,14.04-3.69,19.12.94,5.85,5.22,11.08,11.3,12.05l.83-8.25c-1.31-.94-8.2-4.84-8.52-5.9-.14-.47-.08-.94-.06-1.42.1-2.72.93-6.04,1.35-8.76l18.95,12.59.29,1.19-2.11,18.36c-1.18.48-.39,3.72-.93,4.61-5.22,1.22-11.43-1.47-15.81-4.22-12.49-7.85-18.09-21.14-16.65-35.64.94-9.46,5.75-20.67,17.45-16.48,8.08,2.89,15.78,11.72,17.89,19.88.36,1.41.65,3,.74,4.45h-9.54Z"/>
  <path class="cls-1" d="M159.13,454.83c-.03.07-.36.11-.44.35-.29.81-1.02,4.92-1.93,4.78l-18.97-11.84-.53,6.47,18.29,11.62c.11.15-.09,3.29-.14,3.74-.07.54-.56.39-.62.63-.11.5-.17,5.74-.46,5.73l-17.89-11.57c-.55-.24-.65,1.54-.7,1.96-.15,1.27-.6,2.43-.66,2.91-.13,1.02-.52,4.76.02,5.37l18.92,12.03c.3.49.41,1.05.47,1.61.21,2.02-.09,5.98.31,7.66.06.24.53.07.61.63.06.37.2,1.91-.47,1.65l-32.47-20.74c-.37-.4-.22-1.67-.19-2.25.13-2.17.46-6.91.9-8.85,2.35-10.58,2.37-22.83,4.76-33.34.18-.78-.16-1.89.31-2.76l31.61,20.32c.7.75-.41,2.99-.72,3.89Z"/>
  <path class="cls-2" d="M523.74,335.49l-4.71,13.18c-3.34-1.55-4.92-2.62-8.62-1.18-1.88.73-5.24,3.48-6.27,5.18-1.17,1.93-.86,5,2.06,4.83,5.15-.3,11.73-4.67,17.73-4.43,7.32.3,8.26,8.93,7.73,14.62-1.06,11.4-13.04,25.41-24.59,27.53-4.67.86-8.04-.43-11.34-3.71l-.14-.45,6.34-13.09c.52-.37,1.7,1.59,2.23,2.03.49.4,2.86,1.8,3.44,1.93,6.01,1.39,13.84-5.15,12.98-11.34-.42-3-2.42-2.41-4.65-1.85-8.05,2.01-21.76,9.2-22.88-4.78-.76-9.53,3.76-17.62,10.78-23.65,5.38-4.62,13-9.1,19.92-4.83Z"/>
  <path class="cls-1" d="M237.21,502.59c.53.82,1.09,1.32,1.62,2.39.28.56,1.77,3.91,1.52,4.24l-8.04,2.68c-.32-1.29-.85-2.88-1.44-4.06-1.54-3.08-5.68-7.61-8.92-8.93-5.65-2.31-3.25,3.84-.98,6.31,6.59,7.18,18.24,15.31,19.09,25.81,1.01,12.49-7.46,14.55-17.31,9.51-7.47-3.82-14.48-11.02-17.94-18.64-.43-.94-2.08-5.16-1.61-5.85l8.52-2.36c-.01.74.18,1.45.39,2.14,1.71,5.82,6.02,13.35,12.15,15.51,4.35,1.53,5.36-1.72,3.69-5.16-1.76-3.64-9.13-9.41-12.2-12.78-4.93-5.4-9.83-12.16-8.42-19.96,1.61-8.89,10.13-6.91,16.12-3.73,5.56,2.95,10.37,7.65,13.75,12.88Z"/>
  <path class="cls-2" d="M337.65,462.03c.04.08,1,.26.48,1.3l-10.35,6.24,1.5,17.93c1.11,1.52.77,4.53.98,6.59.07.69.45,4.44.64,4.57l9.97-5.67c.32.21.42.42.48.79.28,1.62-.01,4.5.32,5.93.06.25.58.08.65.67.05.4.03,3.16-.07,3.29l-33.84,19.27-.58-10.66,10.66-6.22c-.32-2.72-.6-5.45-.89-8.17-.22-2.04-.39-3.65-.64-5.67-.62-5.09-1-10.2-1.58-15.28l-9.96,5.67c-.9-.26-.31-2.76-.5-3.56-.06-.26-.58-.09-.65-.67-.12-1-.47-5.29-.24-5.96l32.14-19.39c.5-.1.68.34.74.75.27,1.64.28,7.28.73,8.27Z"/>
</svg>