<?xml version="1.0" encoding="UTF-8"?>
<svg width="65px" height="66px" viewBox="0 0 65 66" version="1.1" xmlns="http://www.w3.org/2000/svg" xmlns:xlink="http://www.w3.org/1999/xlink">
    <!-- Generator: Sketch 61.2 (89653) - https://sketch.com -->
    <title>MYco_LOGO_noir</title>
    <desc>Created with Sketch.</desc>
    <g id="Page-1" stroke="none" stroke-width="1" fill="none" fill-rule="evenodd">
        <g id="MYco_LOGO_noir" fill="#1D1D1B">
            <path d="M13.4535,41.5974 L12.9495,41.5974 C12.4495,41.5974 11.9915,41.6794 11.5745,41.8444 C11.1555,42.0094 10.8025,42.2394 10.5145,42.5334 C10.2255,42.8274 10.0065,43.1674 9.8575,43.5524 C9.7085,43.9364 9.6345,44.3484 9.6345,44.7874 C9.6345,45.1904 9.7105,45.5734 9.8635,45.9394 C10.0175,46.3064 10.2445,46.6324 10.5445,46.9174 C10.8445,47.2024 11.2025,47.4254 11.6185,47.5854 C12.0355,47.7444 12.5005,47.8234 13.0145,47.8234 C13.2435,47.8234 13.3895,47.8204 13.4535,47.8144 L13.4535,47.7594 C12.8825,47.7714 12.3735,47.6954 11.9265,47.5334 C11.4805,47.3704 11.1125,47.1444 10.8215,46.8524 C10.5325,46.5614 10.3155,46.2314 10.1735,45.8654 C10.0315,45.4974 9.9615,45.1234 9.9615,44.7444 C9.9615,44.3724 10.0225,44.0044 10.1465,43.6424 C10.2695,43.2814 10.4605,42.9494 10.7165,42.6474 C10.9735,42.3464 11.3055,42.1064 11.7135,41.9264 C12.1215,41.7474 12.6005,41.6574 13.1525,41.6574 L13.4535,41.6574 L13.4535,41.5974 Z M15.4045,46.7214 L14.7665,47.9014 C14.4915,47.8784 14.2915,47.8664 14.1685,47.8664 C14.0165,47.8664 13.8115,47.8784 13.5525,47.9014 C13.2945,47.9244 13.0925,47.9364 12.9495,47.9364 C12.3695,47.9364 11.8565,47.8454 11.4105,47.6664 C10.9635,47.4864 10.5955,47.2444 10.3065,46.9394 C10.0155,46.6334 9.8005,46.2964 9.6605,45.9264 C9.5185,45.5574 9.4485,45.1844 9.4485,44.8054 C9.4485,44.3204 9.5305,43.8734 9.6955,43.4634 C9.8605,43.0544 10.0945,42.7034 10.3965,42.4084 C10.6975,42.1144 11.0495,41.8894 11.4505,41.7324 C11.8525,41.5764 12.2845,41.4984 12.7465,41.4984 C12.8685,41.4984 12.9435,41.4994 12.9755,41.5004 C13.0075,41.5024 13.0755,41.5054 13.1825,41.5094 C13.2885,41.5134 13.3955,41.5174 13.5055,41.5234 C13.8925,41.5494 14.1895,41.5624 14.3965,41.5624 C14.8555,41.5624 15.1555,41.5494 15.2965,41.5234 L15.3475,42.9704 L15.2965,42.9704 L15.0075,42.0104 C14.9215,41.9904 14.7695,41.9624 14.5515,41.9244 C14.3335,41.8864 14.1205,41.8564 13.9115,41.8344 C13.7035,41.8114 13.4865,41.7994 13.2595,41.7994 C12.6685,41.7994 12.1625,41.9174 11.7425,42.1554 C11.3205,42.3914 11.0045,42.7274 10.7925,43.1624 C10.5795,43.5974 10.4735,44.0974 10.4735,44.6634 C10.4735,45.1024 10.5495,45.5064 10.7015,45.8744 C10.8535,46.2444 11.0665,46.5584 11.3385,46.8184 C11.6115,47.0784 11.9225,47.2754 12.2715,47.4104 C12.6195,47.5454 12.9885,47.6134 13.3755,47.6134 C13.7605,47.6134 14.1215,47.5474 14.4565,47.4174 C14.7925,47.2864 15.0925,47.0484 15.3565,46.7044 L15.4045,46.7214 Z" id="Fill-1"></path>
            <path d="M20.801,43.5184 C20.686,43.2274 19.83,42.7514 19.318,43.0684 C19.266,43.1204 19.266,43.2184 19.318,43.3324 C19.566,43.7824 20.192,44.0124 20.783,44.1974 C20.854,43.9584 20.871,43.7214 20.801,43.5184 M17.44,45.9174 C19.177,45.4404 20.121,43.9324 19.645,44.0214 C19.142,44.0994 18.093,45.0444 17.44,45.9174 M20.729,44.3294 C20.447,44.2584 20.192,44.1534 19.892,44.0214 C20.219,44.4444 18.489,45.8904 17.378,46.0054 C16.841,46.7644 16.531,47.6984 17.299,47.6724 C18.022,47.6634 20.228,45.9434 20.729,44.3294 M20.888,44.3654 C20.219,46.2344 17.828,47.9804 16.796,47.9634 C14.432,47.8574 16.955,45.0004 18.33,43.9154 C18.33,43.9154 19.16,43.7824 19.716,43.9154 C19.442,43.7564 19.249,43.5714 19.16,43.4034 C19.054,43.2004 19.133,43.0864 19.213,43.0064 C19.698,42.5564 20.827,43.0864 20.968,43.4564 C21.039,43.6684 21.03,43.9154 20.942,44.2244 C21.012,44.2414 20.977,44.3914 20.888,44.3654" id="Fill-3"></path>
            <path d="M26.0743,47.6021 C25.9773,47.6551 24.9713,48.1581 25.0253,47.7961 C25.0503,47.5141 25.8183,45.7151 26.1003,44.7531 C25.6763,45.6881 24.8743,46.6491 24.1423,47.8931 C24.0803,47.9731 23.0673,48.1311 23.1013,47.7611 C23.1363,47.4341 24.6273,44.3821 24.7773,43.5091 C24.6013,43.6421 22.6603,45.6521 20.9233,47.8321 C20.8523,47.9101 19.8993,47.8051 20.0943,47.4341 C20.2883,47.0461 21.5403,45.3791 21.4613,45.0711 C21.4613,45.0711 22.0963,45.1411 22.2283,45.4761 C22.3693,45.8201 21.1083,47.3631 21.0283,47.5751 C21.6723,46.7371 23.8253,43.9061 24.7773,43.3501 C24.7773,43.3501 25.3163,43.2711 25.5983,43.5271 C25.8893,43.7831 24.1333,47.4521 24.1423,47.6461 C25.2093,45.7671 25.7213,45.3351 26.1273,44.1791 C26.1543,44.1091 26.7893,44.1271 27.0093,44.3381 C27.2833,44.5941 26.1793,47.5401 26.0743,47.6021" id="Fill-5"></path>
            <path d="M33.3239,47.6021 C33.2269,47.6551 32.2219,48.1581 32.2749,47.7961 C32.2999,47.5141 33.0689,45.7151 33.3509,44.7531 C32.9269,45.6881 32.1239,46.6491 31.3919,47.8931 C31.3309,47.9731 30.3159,48.1311 30.3519,47.7611 C30.3879,47.4341 31.8769,44.3821 32.0269,43.5091 C31.8519,43.6421 29.9109,45.6521 28.1729,47.8321 C28.1029,47.9101 27.1499,47.8051 27.3449,47.4341 C27.5379,47.0461 28.7909,45.3791 28.7109,45.0711 C28.7109,45.0711 29.3459,45.1411 29.4779,45.4761 C29.6189,45.8201 28.3579,47.3631 28.2789,47.5751 C28.9229,46.7371 31.0749,43.9061 32.0269,43.3501 C32.0269,43.3501 32.5659,43.2711 32.8479,43.5271 C33.1379,43.7831 31.3839,47.4521 31.3919,47.6461 C32.4589,45.7671 32.9709,45.3351 33.3769,44.1791 C33.4029,44.1091 34.0389,44.1271 34.2589,44.3381 C34.5319,44.5941 33.4289,47.5401 33.3239,47.6021" id="Fill-7"></path>
            <path d="M39.276,46.3231 L39.276,46.4281 C38.677,46.8871 37.689,47.3991 37.75,46.9761 C37.803,46.6051 38.677,44.9471 38.712,44.3821 C38.438,44.8141 36.419,48.3511 35.519,47.8491 C34.928,47.5141 34.443,47.3111 34.593,46.9051 C34.778,46.4021 35.986,44.1621 36.71,43.4481 C36.71,43.4481 38.359,43.3411 37.971,43.9591 C37.582,44.5861 35.024,47.1611 35.802,47.6461 C36.374,48.0081 38.597,44.3821 38.677,44.2411 L38.668,44.2411 C38.668,44.2411 39.506,44.0381 39.806,44.3381 C40.114,44.6381 38.712,46.6491 39.003,46.5081 C39.055,46.4821 39.1,46.4551 39.276,46.3231" id="Fill-9"></path>
            <path d="M43.0863,48.7401 C42.8833,48.9341 41.8603,48.8451 42.0103,48.3961 C42.1423,47.9991 44.2153,44.3291 44.6553,43.2531 C44.1703,43.6421 42.3713,44.8411 41.2683,47.2401 C41.2163,47.3291 40.0253,47.4521 40.0963,47.0111 C40.1933,46.5781 41.3843,44.4701 41.1633,44.1701 C41.1633,44.1701 41.7983,44.1181 42.0893,44.4361 C42.3883,44.7531 41.3133,46.7111 41.3133,46.9311 C41.9923,45.3881 43.7653,43.6241 44.7003,43.0591 L44.7003,43.0411 C44.7003,43.0411 45.3083,43.0411 45.5383,43.4031 C45.7843,43.7561 43.3763,48.4581 43.0863,48.7401" id="Fill-11"></path>
            <path d="M47.4245,43.747 C47.1605,43.835 46.6575,43.324 46.6575,43.324 C46.5075,43.175 46.8255,42.715 46.9215,42.583 C47.0195,42.46 47.6015,42.486 47.7865,42.751 C47.9625,43.016 47.6795,43.668 47.4245,43.747 M47.1865,44.259 C47.4515,44.603 45.2725,48.228 45.2465,48.228 C45.1395,48.219 44.7165,47.611 44.8495,47.161 C44.9725,46.72 46.0835,43.986 46.3225,43.933 C46.3225,43.933 46.9305,43.915 47.1865,44.259" id="Fill-13"></path>
            <path d="M52.1432,41.816 C54.4362,42.38 50.5382,42.857 49.9652,42.636 C48.7472,44.841 47.1062,49.031 48.2182,49.674 C49.0472,49.622 49.5762,49.119 50.2732,48.475 L50.3262,48.608 C49.6382,49.18 49.0472,49.807 48.2182,49.807 C47.5562,49.807 47.0712,49.587 46.9562,49.031 C46.7362,48.008 47.9982,43.88 48.9242,42.556 C46.5072,42.389 45.8722,42.133 46.5162,43.403 C46.3482,43.403 46.3572,43.394 46.3482,43.377 C46.0042,42.424 45.5452,42.107 49.0022,42.433 C49.3032,42.054 50.6612,40.034 51.2262,40.034 C51.1192,40.087 50.3612,41.948 50.0442,42.504 C50.5462,42.768 54.2242,42.301 51.9662,41.851 L52.1432,41.816 Z" id="Fill-15"></path>
            <path d="M48.6409,51.5268 C48.4819,51.8618 48.5259,52.8328 50.2989,51.9068 C50.7039,51.4648 51.4009,50.4598 51.7459,49.7898 C50.8449,49.8418 49.0899,50.6618 48.6409,51.5268 L48.6409,51.5268 Z M53.8719,50.4338 C53.7039,50.0808 53.2359,49.8858 52.6709,49.8158 C51.1899,52.7968 47.7319,53.0608 48.4639,51.5088 C48.9489,50.6098 50.7579,49.6918 51.8159,49.6488 C52.6539,47.9728 53.3149,45.8638 53.6589,44.6298 C52.9889,45.3788 50.7839,47.8758 50.6779,47.8758 C50.5539,47.8758 49.3559,48.1308 49.4339,47.6638 C49.5139,47.2048 50.7929,44.7088 50.5369,44.3998 C50.5369,44.3998 51.2069,44.3208 51.5339,44.6568 C51.8689,44.9738 50.5009,47.4428 50.7579,47.5668 C51.0039,47.6818 53.3689,44.4888 53.7299,44.3478 C53.8719,43.8708 54.1179,43.2178 54.1179,43.2178 C54.7529,43.2448 55.1759504,43.6508 55.1759504,43.6508 C55.1849,43.6148 53.9859,47.3458 52.7429,49.6738 C53.2619,49.8338 53.8089,49.8948 54.0559,50.3448 L53.8719,50.4338 Z" id="Fill-17"></path>
            <path d="M35.5705,37.0441 C35.1145,37.0441 34.7545,36.8901 34.4915,36.5811 C34.2285,36.2721 34.0965,35.9101 34.0965,35.4931 C34.0965,35.0481 34.2285,34.6741 34.4915,34.3721 C34.7545,34.0711 35.1145,33.9201 35.5705,33.9201 C35.9735,33.9201 36.3295,34.0711 36.6365,34.3721 C36.9435,34.6741 37.0965,35.0481 37.0965,35.4931 C37.0965,35.9101 36.9435,36.2721 36.6365,36.5811 C36.3295,36.8901 35.9735,37.0441 35.5705,37.0441" id="Fill-19"></path>
            <path d="M47.5627,37.0441 C47.1067,37.0441 46.7467,36.8901 46.4837,36.5811 C46.2207,36.2721 46.0887,35.9101 46.0887,35.4931 C46.0887,35.0481 46.2207,34.6741 46.4837,34.3721 C46.7467,34.0711 47.1067,33.9201 47.5627,33.9201 C47.9657,33.9201 48.3217,34.0711 48.6287,34.3721 C48.9357,34.6741 49.0887,35.0481 49.0887,35.4931 C49.0887,35.9101 48.9357,36.2721 48.6287,36.5811 C48.3217,36.8901 47.9657,37.0441 47.5627,37.0441" id="Fill-21"></path>
            <polygon id="Fill-23" points="24.657 26.311 20.587 13.738 15.837 13.738 15.837 37.038 19.512 37.038 19.512 25.394 24.399 37.038 24.894 37.038 29.459 25.496 29.459 37.038 33.103 37.038 33.103 13.738 28.605 13.738"></polygon>
            <polygon id="Fill-25" points="47.052 13.7383 43.156 23.5983 39.232 13.7383 35.13 13.7383 41.161 28.2003 41.161 37.0373 45.09 37.0373 45.09 28.1373 51.122 13.7383"></polygon>
            <path d="M8.8618,36.8769 C8.7458,36.9629 8.6498,37.0719 8.5738,37.2029 C8.4978,37.3349 8.4598,37.4959 8.4598,37.6889 C8.4598,38.2299 8.7048,38.4999 9.1958,38.4999 C9.3518,38.4999 9.4908,38.4619 9.6128,38.3859 C9.7338,38.3099 9.8278,38.2139 9.8928,38.0979 L8.8618,36.8769 Z M10.4548,38.6969 C10.3178,38.8989 10.1408,39.0649 9.9238,39.1939 C9.7058,39.3229 9.4458,39.3869 9.1428,39.3869 C8.9148,39.3869 8.7068,39.3519 8.5168,39.2809 C8.3268,39.2099 8.1638,39.1079 8.0278,38.9739 C7.8908,38.8399 7.7858,38.6739 7.7128,38.4769 C7.6398,38.2799 7.6028,38.0549 7.6028,37.8019 C7.6028,37.6049 7.6268,37.4299 7.6748,37.2749 C7.7228,37.1209 7.7848,36.9829 7.8608,36.8619 C7.9368,36.7409 8.0238,36.6359 8.1228,36.5469 C8.2208,36.4589 8.3238,36.3819 8.4298,36.3159 C8.2168,36.1239 8.0678,35.9219 7.9818,35.7089 C7.8958,35.4969 7.8528,35.2619 7.8528,35.0039 C7.8528,34.7719 7.8978,34.5769 7.9858,34.4199 C8.0748,34.2629 8.1868,34.1379 8.3238,34.0449 C8.4598,33.9509 8.6088,33.8849 8.7708,33.8479 C8.9328,33.8099 9.0868,33.7909 9.2338,33.7909 C10.0418,33.7909 10.4618,34.1719 10.4918,34.9359 L9.6728,35.2539 C9.6478,34.9969 9.5998,34.8169 9.5288,34.7159 C9.4588,34.6149 9.3418,34.5639 9.1798,34.5639 C9.0138,34.5639 8.8948,34.6139 8.8238,34.7119 C8.7528,34.8109 8.7178,34.9609 8.7178,35.1629 C8.7178,35.2339 8.7298,35.3129 8.7558,35.3979 C8.7808,35.4839 8.8478,35.6069 8.9568,35.7659 C9.0658,35.9249 9.2278,36.1349 9.4458,36.3959 C9.6628,36.6559 9.9638,36.9959 10.3478,37.4159 C10.4138,37.2739 10.4628,37.1069 10.4958,36.9149 C10.5288,36.7229 10.5558,36.5059 10.5758,36.2629 L11.4018,36.2629 C11.4018,36.4449 11.3878,36.6299 11.3608,36.8159 C11.3328,37.0039 11.2988,37.1799 11.2578,37.3469 C11.2178,37.5139 11.1708,37.6659 11.1178,37.8019 C11.0648,37.9389 11.0158,38.0479 10.9698,38.1279 L11.9328,39.3109 L10.9248,39.3109 L10.4548,38.6969 Z" id="Fill-27"></path>
            <path d="M64.342,22.356 L63.898,21.159 C63.837,21.006 63.765,20.835 63.689,20.651 L63.559,20.344 C62.965,18.937 62.169,17.389 61.374,16.095 C60.547,14.738 59.53,13.316 58.584,12.193 C58.254,11.799 57.965,11.472 57.71,11.184 L57.13,10.559 C56.922,10.343 56.537,10.328 56.317,10.528 C56.206,10.627 56.142,10.763 56.135,10.909 C56.129,11.054 56.182,11.194 56.283,11.301 L56.834,11.893 C57.085,12.177 57.37,12.5 57.693,12.886 C58.602,13.964 59.583,15.337 60.387,16.655 C61.154,17.902 61.922,19.397 62.495,20.754 L62.64,21.098 C62.722,21.292 62.778,21.423 62.822,21.54 L63.262,22.722 C63.343,22.945 63.575,23.09 63.812,23.09 C63.873,23.09 63.936,23.08 63.995,23.059 C64.143,23.007 64.26,22.903 64.323,22.767 C64.385,22.638 64.391,22.493 64.342,22.356" id="Fill-29"></path>
            <path d="M53.0783,6.9189 C52.3543,6.3569 51.3533,5.6669 50.3263,5.0239 L49.9963,4.8259 C49.6093,4.5939 49.2093,4.3539 48.8183,4.1499 L48.5573,4.0059 C48.3993,3.9199 48.2473,3.8369 48.0813,3.7509 L47.4603,3.4419 C47.0533,3.2329 46.7063,3.0789 46.4583,2.9689 L46.0843,2.8019 C45.8043,2.6759 45.4473,2.8009 45.3193,3.0719 C45.2573,3.2029 45.2513,3.3499 45.3013,3.4849 C45.3523,3.6249 45.4583,3.7369 45.5993,3.7999 L45.9773,3.9699 L45.9793,3.9699 C46.2193,4.0749 46.5433,4.2219 46.9283,4.4179 L47.5493,4.7259 C47.6903,4.7989 47.8263,4.8749 47.9893,4.9639 L48.2663,5.1139 C48.6213,5.2999 49.0083,5.5319 49.3823,5.7559 L49.7143,5.9559 C50.7013,6.5729 51.6673,7.2379 52.3653,7.7819 C52.9863,8.2489 53.4493,8.6419 53.5093,8.6979 C53.5913,8.7649 53.7173,8.8019 53.8493,8.8019 C54.0113,8.8019 54.1823,8.7459 54.2953,8.6249 C54.3943,8.5149 54.4443,8.3739 54.4353,8.2309 C54.4283,8.0859 54.3613,7.9509 54.2393,7.8449 C53.9033,7.5579 53.4903,7.2279 53.0783,6.9189" id="Fill-31"></path>
            <path d="M4.6745,13.6191 L4.4665,13.8991 C4.3745,14.0221 4.2645,14.1681 4.1745,14.3061 L3.6965,15.0051 C3.6135,15.1251 3.5845,15.2701 3.6125,15.4121 C3.6415,15.5561 3.7265,15.6811 3.8535,15.7651 C3.9475,15.8251 4.0575,15.8541 4.1675,15.8541 C4.3565,15.8541 4.5455,15.7681 4.6525,15.6111 L5.1355,14.9061 C5.2115,14.7901 5.2985,14.6741 5.3735,14.5731 L5.6055,14.2621 C5.6935,14.1441 5.7295,14.0001 5.7065,13.8581 C5.6845,13.7121 5.6035,13.5841 5.4795,13.4951 C5.2285,13.3191 4.8545,13.3781 4.6745,13.6191" id="Fill-33"></path>
            <path d="M38.6594,0.5117 L38.0704,0.4037 C37.8194,0.3557 37.5354,0.3167 37.2254,0.2737 L36.7124,0.1997 C36.3894,0.1537 36.0704,0.1227 35.7754,0.0947 L35.3674,0.0527 C35.0054,0.0107 34.7474,0.0007 34.7114,-0.0003 C34.3844,-0.0003 34.1314,0.2297 34.1214,0.5327 C34.1164,0.6757 34.1694,0.8117 34.2674,0.9187 C34.3274,0.9817 34.4004,1.0307 34.4814,1.0617 L34.4814,1.0947 L34.6774,1.1017 C34.7054,1.1027 34.9244,1.1117 35.2354,1.1477 L35.6894,1.1937 C35.9824,1.2217 36.2694,1.2507 36.5414,1.2897 L36.9924,1.3547 C37.3544,1.4047 37.6304,1.4427 37.8514,1.4857 L38.5534,1.6047 C38.8284,1.6047 39.0644,1.4147 39.1144,1.1557 C39.1424,1.0137 39.1124,0.8697 39.0304,0.7507 C38.9444,0.6247 38.8124,0.5397 38.6594,0.5117" id="Fill-38"></path>
            <path d="M28.5998,0.0972 L28.2068,0.1352 C28.0078,0.1502 27.7868,0.1812 27.5268,0.2202 L26.5958,0.3532 C26.4598,0.3742 26.3118,0.4022 26.1578,0.4312 L24.4058,0.7852 C23.1948,1.0532 22.0688,1.4022 21.6448,1.5382 C21.2548,1.6542 20.9448,1.7662 20.7388,1.8402 L20.7928,2.0332 L20.7248,1.8452 L20.3898,1.9652 C20.2438,2.0162 20.1288,2.1202 20.0648,2.2562 C20.0038,2.3862 19.9978,2.5322 20.0488,2.6682 C20.1328,2.8922 20.3578,3.0332 20.5908,3.0332 C20.6558,3.0332 20.7218,3.0222 20.7848,2.9992 L21.1268,2.8782 C21.3328,2.8032 21.6198,2.6992 21.9948,2.5872 C22.5158,2.4212 23.5558,2.1052 24.6598,1.8592 L26.3788,1.5122 C26.5188,1.4862 26.6568,1.4602 26.7738,1.4412 L27.6968,1.3092 C27.9478,1.2732 28.1498,1.2442 28.3118,1.2322 L28.6528,1.1972 C28.8088,1.1812 28.9478,1.1072 29.0448,0.9882 C29.1358,0.8762 29.1778,0.7362 29.1628,0.5932 C29.1478,0.4482 29.0748,0.3162 28.9598,0.2242 C28.8588,0.1422 28.7308,0.0972 28.5998,0.0972" id="Fill-41"></path>
            <path d="M11.9572,6.4268 C11.9312,6.4448 11.7202,6.5878 11.4362,6.8118 L11.0922,7.0768 C10.8642,7.2508 10.6182,7.4378 10.3822,7.6398 L10.0592,7.9098 C9.7882,8.1348 9.5452,8.3358 9.3652,8.5068 L8.9092,8.9178 C8.7982,9.0178 8.7342,9.1538 8.7292,9.2978 C8.7232,9.4438 8.7762,9.5838 8.8782,9.6908 C8.9902,9.8088 9.1462,9.8678 9.3032,9.8678 C9.4442,9.8678 9.5842,9.8198 9.6932,9.7208 L10.1572,9.3018 C10.3092,9.1578 10.5302,8.9738 10.7832,8.7638 L11.1382,8.4688 L11.1402,8.4668 C11.3612,8.2768 11.6082,8.0888 11.8262,7.9238 C11.9492,7.8298 12.0632,7.7428 12.1612,7.6648 C12.4042,7.4728 12.5822,7.3518 12.6042,7.3368 C12.7342,7.2498 12.8202,7.1218 12.8482,6.9768 C12.8742,6.8358 12.8422,6.6918 12.7582,6.5708 C12.5862,6.3248 12.2112,6.2578 11.9572,6.4268" id="Fill-43"></path>
            <path d="M15.9524,3.9326 L15.5564,4.1486 C15.4234,4.2216 15.3274,4.3406 15.2854,4.4846 C15.2464,4.6236 15.2654,4.7696 15.3374,4.8956 C15.4404,5.0746 15.6404,5.1766 15.8454,5.1766 C15.9394,5.1766 16.0344,5.1546 16.1204,5.1086 L16.5174,4.8916 C16.6514,4.8186 16.7474,4.7006 16.7884,4.5566 C16.8274,4.4166 16.8094,4.2706 16.7374,4.1456 C16.5894,3.8866 16.2274,3.7836 15.9524,3.9326" id="Fill-45"></path>
            <path d="M64.3508,42.3599 C64.2868,42.2229 64.1708,42.1199 64.0248,42.0689 L64.0218,42.0679 C63.7238,41.9659 63.3918,42.1239 63.2888,42.4029 L62.8548,43.5719 C62.7998,43.7149 62.7368,43.8649 62.6678,44.0239 L62.5238,44.3669 C61.9548,45.7199 61.1838,47.2169 60.4108,48.4769 C59.6078,49.7929 58.6258,51.1659 57.7158,52.2469 C57.3918,52.6329 57.1018,52.9619 56.8708,53.2219 L56.3128,53.8219 C56.2088,53.9329 56.1558,54.0739 56.1618,54.2179 C56.1678,54.3639 56.2328,54.4999 56.3438,54.5999 C56.4528,54.6969 56.5928,54.7449 56.7328,54.7449 C56.8898,54.7449 57.0468,54.6839 57.1598,54.5649 L57.7408,53.9389 C57.9968,53.6489 58.2848,53.3249 58.6068,52.9389 C59.5538,51.8139 60.5718,50.3909 61.3968,49.0369 C62.1928,47.7439 62.9918,46.1909 63.5868,44.7769 L63.7108,44.4819 C63.7908,44.2949 63.8648,44.1219 63.9318,43.9479 L64.3698,42.7689 C64.4178,42.6359 64.4118,42.4859 64.3508,42.3599" id="Fill-47"></path>
            <path d="M53.4983,56.4624 C53.4633,56.4954 53.0273,56.8674 52.3703,57.3614 C51.6963,57.8874 50.7473,58.5414 49.7703,59.1524 L49.4253,59.3594 C49.0463,59.5874 48.6553,59.8214 48.2743,60.0214 L46.9373,60.7184 C46.5773,60.9014 46.2623,61.0434 45.9953,61.1614 L45.6233,61.3274 C45.4833,61.3914 45.3783,61.5034 45.3283,61.6414 C45.2783,61.7764 45.2843,61.9224 45.3463,62.0564 C45.4423,62.2574 45.6553,62.3764 45.8723,62.3764 C45.9523,62.3764 46.0333,62.3604 46.1083,62.3254 L46.4753,62.1624 C46.7513,62.0404 47.0863,61.8904 47.4683,61.6934 L48.1353,61.3624 C48.2563,61.3004 48.3883,61.2284 48.5223,61.1534 L48.8233,60.9884 C49.2043,60.7894 49.5783,60.5664 49.9393,60.3504 L50.3833,60.0854 C51.4003,59.4464 52.3853,58.7684 53.0823,58.2244 C53.5043,57.9074 53.9213,57.5754 54.2703,57.2764 C54.3853,57.1774 54.4533,57.0424 54.4633,56.8954 C54.4703,56.7514 54.4203,56.6114 54.3193,56.5004 C54.1133,56.2774 53.7443,56.2504 53.4983,56.4624" id="Fill-49"></path>
            <path d="M5.4206,50.5806 C5.3316,50.4616 5.2406,50.3406 5.1486,50.1996 L4.6796,49.5156 C4.5086,49.2666 4.1306,49.1946 3.8826,49.3616 C3.7536,49.4436 3.6676,49.5696 3.6396,49.7146 C3.6106,49.8556 3.6396,50.0006 3.7226,50.1226 L4.1866,50.7996 C4.2916,50.9566 4.3986,51.1016 4.4886,51.2226 L4.7016,51.5086 C4.8236,51.6736 4.9776,51.7576 5.1436,51.7576 C5.2606,51.7576 5.3826,51.7166 5.5046,51.6316 L5.5066,51.6306 C5.6306,51.5416 5.7106,51.4136 5.7326,51.2686 C5.7556,51.1266 5.7196,50.9826 5.6326,50.8656 L5.4206,50.5806 Z" id="Fill-51"></path>
            <path d="M1.761,44.0269 C1.668,43.8089 1.579,43.5989 1.5,43.3759 L1.139,42.4019 C1.035,42.1229 0.722,41.9639 0.403,42.0689 C0.257,42.1219 0.141,42.2249 0.077,42.3609 C0.016,42.4919 0.01,42.6369 0.06,42.7719 L0.419,43.7379 C0.511,43.9999 0.614,44.2419 0.699,44.4389 L0.826,44.7429 C0.916,44.9569 1.131,45.0869 1.359,45.0869 C1.431,45.0869 1.506,45.0729 1.578,45.0449 C1.721,44.9879 1.831,44.8809 1.888,44.7419 C1.944,44.6089 1.944,44.4629 1.888,44.3309 L1.761,44.0269 Z" id="Fill-53"></path>
            <path d="M38.5793,63.522 C38.5413,63.522 38.5053,63.525 38.4713,63.533 L37.8653,63.644 C37.6573,63.683 37.3793,63.723 37.0843,63.763 L36.5743,63.835 C36.2913,63.876 35.9973,63.906 35.7203,63.932 L35.2563,63.98 C34.9273,64.018 34.6983,64.025 34.6853,64.025 C34.5423,64.03 34.3953,64.098 34.2943,64.208 C34.1953,64.314 34.1433,64.451 34.1473,64.592 C34.1553,64.825 34.3073,65.017 34.5183,65.093 L34.5183,65.427 L34.9193,65.429 L34.9213,65.117 C35.0383,65.109 35.2013,65.096 35.3953,65.074 C35.5153,65.06 35.6493,65.047 35.8253,65.031 C36.1393,65.001 36.4383,64.971 36.7463,64.925 L37.2813,64.849 C37.5763,64.808 37.8523,64.77 38.0843,64.725 L38.6833,64.615 C38.8373,64.588 38.9693,64.503 39.0573,64.376 C39.1393,64.256 39.1693,64.113 39.1413,63.974 C39.0923,63.712 38.8553,63.522 38.5793,63.522" id="Fill-55"></path>
            <path d="M28.6794,63.9292 L28.3004,63.8912 C28.1694,63.8812 27.9564,63.8512 27.7094,63.8152 L26.8254,63.6892 C26.6794,63.6652 26.5364,63.6392 26.3924,63.6122 L24.6854,63.2662 C23.5724,63.0192 22.5204,62.7002 21.9894,62.5302 C21.6614,62.4322 21.3784,62.3302 21.1694,62.2552 L20.8084,62.1262 C20.5074,62.0262 20.1784,62.1812 20.0744,62.4592 C20.0244,62.5932 20.0304,62.7402 20.0914,62.8702 C20.1544,63.0062 20.2694,63.1102 20.4164,63.1622 L20.7484,63.2802 C20.9604,63.3572 21.2714,63.4702 21.6384,63.5782 C22.1764,63.7512 23.2554,64.0802 24.4304,64.3412 L26.1714,64.6932 C26.3304,64.7242 26.4834,64.7512 26.6454,64.7772 L27.5584,64.9082 C27.8134,64.9452 28.0334,64.9762 28.1964,64.9902 L28.3934,65.0092 L28.4214,65.3452 L28.8204,65.3282 L28.8204,64.9932 C29.0184,64.9232 29.1664,64.7482 29.1894,64.5332 C29.2044,64.3902 29.1624,64.2502 29.0704,64.1382 C28.9734,64.0202 28.8344,63.9462 28.6794,63.9292" id="Fill-57"></path>
            <path d="M12.6189,57.7837 C12.5789,57.7607 12.3509,57.5907 12.1909,57.4637 C12.0889,57.3837 11.9729,57.2957 11.8509,57.2027 C11.6329,57.0367 11.3869,56.8487 11.1579,56.6527 L10.8189,56.3697 C10.5489,56.1457 10.3319,55.9657 10.1579,55.8007 L9.7199,55.4047 C9.4979,55.2057 9.1109,55.2197 8.9049,55.4357 C8.8029,55.5437 8.7499,55.6817 8.7559,55.8287 L8.7559,55.8297 C8.7619,55.9747 8.8259,56.1097 8.9359,56.2097 L9.3649,56.5967 C9.5669,56.7867 9.8029,56.9827 10.0529,57.1897 L10.3979,57.4767 C10.6549,57.6967 10.9129,57.8937 11.1389,58.0647 L11.4639,58.3157 C11.7269,58.5247 11.9289,58.6637 11.9779,58.6967 C12.0799,58.7637 12.1969,58.7967 12.3109,58.7967 C12.4949,58.7967 12.6749,58.7127 12.7839,58.5567 C12.8689,58.4377 12.8999,58.2937 12.8739,58.1507 C12.8469,58.0047 12.7629,57.8777 12.6189,57.7837" id="Fill-59"></path>
            <path d="M16.5446,60.2349 L16.1476,60.0179 C15.8836,59.8749 15.5116,59.9729 15.3636,60.2309 C15.2916,60.3569 15.2736,60.5039 15.3126,60.6429 C15.3526,60.7849 15.4476,60.9039 15.5826,60.9779 L15.9796,61.1949 C16.0666,61.2429 16.1626,61.2649 16.2586,61.2649 C16.4616,61.2649 16.6606,61.1629 16.7626,60.9819 C16.8356,60.8559 16.8536,60.7109 16.8146,60.5719 C16.7746,60.4289 16.6796,60.3099 16.5446,60.2349" id="Fill-61"></path>
        </g>
    </g>
</svg>